<svg width="280" height="280" viewBox="0 0 280 280" fill="none" xmlns="http://www.w3.org/2000/svg">
<g clip-path="url(#clip0_356_104)">
<path d="M53.6521 70.2507C53.6521 70.2507 96.3755 91.5653 143.227 27.7875C184.835 -28.8533 240.037 37.7007 247.024 73.2441C256.075 119.287 212.169 165.781 242.545 191.41C272.921 217.04 208.72 280.949 160.901 245.154C101.416 200.626 96.2778 246.898 68.1471 252.208C47.9573 256.019 -2.93542 213.673 18.0326 171.063C35.6768 135.208 20.8689 127.209 12.5981 117.494C0.669513 103.484 13.9596 56.8342 53.6521 70.2507Z" fill="#DEE9FF"/>
<path d="M71.0001 145H211C216.52 145 221 149.48 221 155V200C221 205.525 216.52 210 211 210H71.0001C65.4801 209.999 61 205.525 61 200V155C61 149.479 65.4801 145 71.0001 145Z" fill="#A2BDFF"/>
<path d="M141 70.0001C149.28 70.0001 156 74.4803 156 80.0003H166C166 68.9551 154.81 60 141 60C127.19 60 116 68.9551 116 79.9997H126C126 74.4797 132.72 70.0001 141 70.0001Z" fill="#A2BDFF"/>
<path d="M106 79.9997H176C192.565 79.9997 206 93.4349 206 110V209.999C206 215.524 201.52 219.999 195.999 219.999H85.9997C80.4796 219.999 75.9995 215.524 75.9995 209.999V110C76.0001 93.4349 89.4296 79.9997 106 79.9997Z" fill="#5895F9"/>
<path d="M90.9997 79.9997H190.999C202.045 79.9997 210.999 88.9548 210.999 99.9994V119.999C210.999 131.044 202.044 139.999 190.999 139.999H90.9997C79.9545 139.999 71 131.044 71 119.999V100C71 88.9548 79.9545 79.9997 90.9997 79.9997Z" fill="#A2BDFF"/>
<path d="M101 184.999C101 184.999 104.855 194.999 108.655 194.999C112.355 194.999 116 184.999 116 184.999V79.9997H101V184.999ZM166 79.9997V184.999C166 184.999 169.855 195 173.655 195C177.355 195 181 184.999 181 184.999V79.9997H166Z" fill="#418DF9"/>
<path d="M96 175H121V160H96V175ZM161 160V175H186V160H161Z" fill="#DEE9FF"/>
</g>
<defs>
<clipPath id="clip0_356_104">
<rect width="280" height="280" fill="white"/>
</clipPath>
</defs>
</svg>
