<svg width="512" height="512" viewBox="0 0 512 512" fill="none" xmlns="http://www.w3.org/2000/svg">
<path d="M231 37.4338C246.47 28.5021 265.53 28.5021 281 37.4338L432.784 125.066C448.254 133.998 457.784 150.504 457.784 168.368V343.632C457.784 361.496 448.254 378.002 432.784 386.934L281 474.566C265.53 483.498 246.47 483.498 231 474.566L79.2161 386.934C63.746 378.002 54.2161 361.496 54.2161 343.632V168.368C54.2161 150.504 63.746 133.998 79.2161 125.066L231 37.4338Z" fill="url(#paint0_linear_420_2294)" stroke="white" stroke-width="20"/>
<path d="M230.5 93.4338C245.97 84.5021 265.03 84.5021 280.5 93.4338L383.353 152.816C398.824 161.748 408.353 178.254 408.353 196.118V314.882C408.353 332.746 398.824 349.252 383.353 358.184L280.5 417.566C265.03 426.498 245.97 426.498 230.5 417.566L127.647 358.184C112.176 349.252 102.647 332.746 102.647 314.882V196.118C102.647 178.254 112.176 161.748 127.647 152.816L230.5 93.4338Z" stroke="url(#paint1_linear_420_2294)" stroke-width="15"/>
<path d="M230.5 93.4338C245.97 84.5021 265.03 84.5021 280.5 93.4338L383.353 152.816C398.824 161.748 408.353 178.254 408.353 196.118V314.882C408.353 332.746 398.824 349.252 383.353 358.184L280.5 417.566C265.03 426.498 245.97 426.498 230.5 417.566L127.647 358.184C112.176 349.252 102.647 332.746 102.647 314.882V196.118C102.647 178.254 112.176 161.748 127.647 152.816L230.5 93.4338Z" stroke="url(#paint2_linear_420_2294)" stroke-width="15"/>
<path d="M230.5 93.4338C245.97 84.5021 265.03 84.5021 280.5 93.4338L383.353 152.816C398.824 161.748 408.353 178.254 408.353 196.118V314.882C408.353 332.746 398.824 349.252 383.353 358.184L280.5 417.566C265.03 426.498 245.97 426.498 230.5 417.566L127.647 358.184C112.176 349.252 102.647 332.746 102.647 314.882V196.118C102.647 178.254 112.176 161.748 127.647 152.816L230.5 93.4338Z" stroke="url(#paint3_linear_420_2294)" stroke-width="15"/>
<path d="M282.873 164.125H335.169C342.401 164.125 348.243 169.99 348.243 177.25C348.243 184.51 342.401 190.375 335.169 190.375H288.756C286.632 200.957 279.4 209.693 269.799 213.877V334.75H335.169C342.401 334.75 348.243 340.615 348.243 347.875C348.243 355.135 342.401 361 335.169 361H178.28C171.048 361 165.206 355.135 165.206 347.875C165.206 340.615 171.048 334.75 178.28 334.75H243.651V213.877C234.049 209.652 226.818 200.916 224.693 190.375H178.28C171.048 190.375 165.206 184.51 165.206 177.25C165.206 169.99 171.048 164.125 178.28 164.125H230.577C236.542 156.168 246.02 151 256.725 151C267.429 151 276.908 156.168 282.873 164.125ZM305.589 282.25H364.79L335.169 231.309L305.589 282.25ZM335.169 321.625C309.471 321.625 288.103 307.68 283.69 289.264C282.628 284.752 284.099 280.117 286.427 276.098L325.323 209.16C327.366 205.633 331.125 203.5 335.169 203.5C339.214 203.5 342.973 205.674 345.016 209.16L383.911 276.098C386.24 280.117 387.711 284.752 386.649 289.264C382.236 307.68 360.868 321.625 335.169 321.625ZM177.79 231.309L148.21 282.25H207.411L177.79 231.309ZM126.351 289.264C125.289 284.752 126.76 280.117 129.089 276.098L167.984 209.16C170.027 205.633 173.786 203.5 177.831 203.5C181.875 203.5 185.634 205.674 187.677 209.16L226.573 276.098C228.901 280.117 230.372 284.752 229.31 289.264C224.857 307.68 203.489 321.625 177.79 321.625C152.091 321.625 130.764 307.68 126.351 289.264Z" fill="white"/>
<defs>
<linearGradient id="paint0_linear_420_2294" x1="256" y1="23" x2="256" y2="489" gradientUnits="userSpaceOnUse">
<stop stop-color="#FD5C5C"/>
<stop offset="0.15" stop-color="#FF8800"/>
<stop offset="0.35" stop-color="#FFDA0A"/>
<stop offset="0.55" stop-color="#00FF73"/>
<stop offset="0.75" stop-color="#55BEFF"/>
<stop offset="0.95" stop-color="#F984FF"/>
</linearGradient>
<linearGradient id="paint1_linear_420_2294" x1="255.5" y1="79" x2="255.5" y2="432" gradientUnits="userSpaceOnUse">
<stop stop-color="#FD5C5C"/>
<stop offset="0.15" stop-color="#FF8800"/>
<stop offset="0.35" stop-color="#FFDA0A"/>
<stop offset="0.55" stop-color="#00FF73"/>
<stop offset="0.75" stop-color="#55BEFF"/>
<stop offset="0.95" stop-color="#F984FF"/>
</linearGradient>
<linearGradient id="paint2_linear_420_2294" x1="255.5" y1="79" x2="255.5" y2="432" gradientUnits="userSpaceOnUse">
<stop stop-color="#FD5C5C"/>
<stop offset="0.15" stop-color="#FF8800"/>
<stop offset="0.35" stop-color="#FFDA0A"/>
<stop offset="0.55" stop-color="#00FF73"/>
<stop offset="0.75" stop-color="#55BEFF"/>
<stop offset="0.95" stop-color="#F984FF"/>
</linearGradient>
<linearGradient id="paint3_linear_420_2294" x1="255.5" y1="79" x2="255.5" y2="432" gradientUnits="userSpaceOnUse">
<stop stop-color="#FD5C5C"/>
<stop offset="0.15" stop-color="#FF8800"/>
<stop offset="0.35" stop-color="#FFDA0A"/>
<stop offset="0.55" stop-color="#00FF73"/>
<stop offset="0.75" stop-color="#55BEFF"/>
<stop offset="0.95" stop-color="#F984FF"/>
</linearGradient>
</defs>
</svg>
