<svg width="512" height="512" viewBox="0 0 512 512" fill="none" xmlns="http://www.w3.org/2000/svg">
<path d="M231 37.4338C246.47 28.5021 265.53 28.5021 281 37.4338L432.784 125.066C448.254 133.998 457.784 150.504 457.784 168.368V343.632C457.784 361.496 448.254 378.002 432.784 386.934L281 474.566C265.53 483.498 246.47 483.498 231 474.566L79.2161 386.934C63.746 378.002 54.2161 361.496 54.2161 343.632V168.368C54.2161 150.504 63.746 133.998 79.2161 125.066L231 37.4338Z" fill="url(#paint0_linear_400_1773)" stroke="white" stroke-width="20"/>
<path d="M230.5 93.4338C245.97 84.5021 265.03 84.5021 280.5 93.4338L383.353 152.816C398.824 161.748 408.353 178.254 408.353 196.118V314.882C408.353 332.746 398.824 349.252 383.353 358.184L280.5 417.566C265.03 426.498 245.97 426.498 230.5 417.566L127.647 358.184C112.176 349.252 102.647 332.746 102.647 314.882V196.118C102.647 178.254 112.176 161.748 127.647 152.816L230.5 93.4338Z" stroke="url(#paint1_linear_400_1773)" stroke-width="15"/>
<path d="M396.5 268.49C386.5 262.717 386.5 248.283 396.5 242.51L460.25 205.703C470.25 199.93 482.75 207.147 482.75 218.694L482.75 292.306C482.75 303.853 470.25 311.07 460.25 305.297L396.5 268.49Z" fill="url(#paint2_linear_400_1773)" stroke="white" stroke-width="10"/>
<path d="M115.5 268.49C125.5 262.717 125.5 248.283 115.5 242.51L51.75 205.703C41.75 199.93 29.25 207.147 29.25 218.694L29.25 292.306C29.25 303.853 41.75 311.07 51.75 305.297L115.5 268.49Z" fill="url(#paint3_linear_400_1773)" stroke="white" stroke-width="10"/>
<path d="M197.975 255.327C202.251 244.473 207.392 234.03 213.398 223.998C219.404 213.967 226.186 204.51 233.744 195.63L220.917 192.916C217.628 192.259 214.421 192.423 211.296 193.41C208.172 194.397 205.458 196.041 203.156 198.343L172.074 229.425C169.607 231.892 168.66 234.852 169.232 238.306C169.805 241.76 171.739 244.144 175.034 245.46L197.975 255.327ZM343.023 159.121C325.591 158.299 309.024 161.67 293.322 169.235C277.62 176.8 263.599 186.749 251.258 199.083C243.365 206.977 236.415 215.529 230.409 224.738C224.403 233.948 219.187 243.651 214.76 253.847C213.937 255.985 213.526 258.166 213.526 260.389C213.526 262.612 214.348 264.543 215.993 266.181L246.828 297.016C248.472 298.661 250.406 299.483 252.63 299.483C254.853 299.483 257.031 299.072 259.162 298.25C269.358 293.81 279.061 288.586 288.27 282.581C297.48 276.575 306.031 269.628 313.925 261.741C326.259 249.407 336.208 235.389 343.773 219.686C351.338 203.984 354.706 187.414 353.877 169.975C353.877 168.659 353.548 167.344 352.891 166.028C352.233 164.712 351.41 163.561 350.424 162.574C349.437 161.588 348.286 160.765 346.97 160.108C345.655 159.45 344.339 159.121 343.023 159.121ZM274.693 218.7C274.693 213.187 276.584 208.54 280.367 204.757C284.149 200.975 288.796 199.083 294.309 199.083C299.821 199.083 304.466 200.975 308.241 204.757C312.017 208.54 313.908 213.187 313.915 218.7C313.922 224.212 312.03 228.856 308.241 232.632C304.452 236.408 299.808 238.299 294.309 238.306C288.81 238.313 284.162 236.421 280.367 232.632C276.571 228.843 274.68 224.199 274.693 218.7ZM257.672 315.024L267.539 337.966C268.855 341.255 271.239 343.228 274.693 343.886C278.146 344.544 281.107 343.639 283.573 341.173L314.655 310.091C316.957 307.788 318.602 305.035 319.589 301.832C320.575 298.628 320.74 295.378 320.082 292.083L317.615 279.255C308.57 286.82 299.075 293.606 289.129 299.611C279.183 305.617 268.697 310.755 257.672 315.024ZM177.501 293.809C183.257 288.054 190.246 285.133 198.469 285.047C206.691 284.962 213.681 287.8 219.437 293.563C225.192 299.325 228.07 306.315 228.07 314.531C228.07 322.747 225.192 329.736 219.437 335.499C211.543 343.393 202.208 348.08 191.433 349.56C180.659 351.04 169.847 352.52 159 354C160.48 343.146 162.003 332.335 163.569 321.566C165.134 310.798 169.778 301.545 177.501 293.809Z" fill="url(#paint4_linear_400_1773)"/>
<path d="M198.391 277.548C208.609 277.442 217.546 281.057 224.743 288.263C231.917 295.445 235.57 304.347 235.57 314.531C235.57 324.715 231.917 333.616 224.743 340.799L224.74 340.802C215.722 349.82 204.896 355.281 192.454 356.99C181.677 358.471 170.863 359.95 160.014 361.431L150.235 362.766L151.568 352.986C153.051 342.111 154.578 331.278 156.146 320.487C157.945 308.114 163.336 297.384 172.193 288.511L172.197 288.506C179.356 281.347 188.228 277.654 198.391 277.548ZM290.067 162.479C306.866 154.385 324.643 150.761 343.285 151.626C345.799 151.669 348.166 152.32 350.324 153.399C352.322 154.398 354.141 155.685 355.728 157.271C357.314 158.858 358.6 160.677 359.599 162.674C360.677 164.83 361.329 167.196 361.372 169.708C362.244 188.358 358.625 206.14 350.53 222.941C342.599 239.404 332.158 254.114 319.229 267.044L319.226 267.046C314.757 271.511 310.082 275.688 305.204 279.581C307.772 277.616 310.306 275.591 312.804 273.502L322.575 265.33L324.98 277.839L327.447 290.666H327.445C328.334 295.163 328.106 299.658 326.757 304.039C325.421 308.375 323.151 312.201 319.958 315.394L288.877 346.476C284.638 350.715 279.16 352.372 273.29 351.254C267.363 350.125 262.929 346.472 260.649 340.929L250.782 317.987L247.708 310.84L254.964 308.03C257.067 307.216 259.148 306.367 261.21 305.487C258.441 306.474 255.571 306.983 252.63 306.983C248.318 306.983 244.503 305.298 241.524 302.319L210.689 271.484V271.483C207.708 268.509 206.026 264.697 206.026 260.389C206.026 257.549 206.501 254.773 207.42 252.091C206.567 254.071 205.745 256.067 204.953 258.076L202.118 265.273L195.012 262.217L172.071 252.35V252.349C166.482 250.053 162.831 245.553 161.833 239.532C160.867 233.701 162.586 228.307 166.771 224.122L197.853 193.04C201.012 189.88 204.772 187.605 209.038 186.258C213.126 184.967 217.328 184.694 221.544 185.406L222.388 185.562L222.429 185.57L222.469 185.579L235.296 188.292L247.619 190.899L239.455 200.491C238.449 201.673 237.459 202.867 236.481 204.07C239.482 200.528 242.639 197.097 245.955 193.78L245.956 193.778C258.892 180.849 273.606 170.409 290.067 162.479ZM294.309 206.583C290.718 206.583 287.998 207.732 285.67 210.061C283.341 212.389 282.193 215.108 282.193 218.699V218.718C282.185 222.276 283.323 224.986 285.665 227.324C288.013 229.668 290.734 230.81 294.3 230.806C297.88 230.801 300.605 229.653 302.947 227.319C305.274 225 306.419 222.293 306.415 218.709C306.411 215.111 305.259 212.386 302.934 210.056C300.613 207.731 297.9 206.583 294.309 206.583Z" stroke="white" stroke-opacity="0.98" stroke-width="15"/>
<defs>
<linearGradient id="paint0_linear_400_1773" x1="256" y1="23" x2="256" y2="489" gradientUnits="userSpaceOnUse">
<stop stop-color="#FD5C5C"/>
<stop offset="0.15" stop-color="#FF8800"/>
<stop offset="0.35" stop-color="#FFDA0A"/>
<stop offset="0.55" stop-color="#00FF73"/>
<stop offset="0.75" stop-color="#55BEFF"/>
<stop offset="0.95" stop-color="#F984FF"/>
</linearGradient>
<linearGradient id="paint1_linear_400_1773" x1="255.5" y1="79" x2="255.5" y2="432" gradientUnits="userSpaceOnUse">
<stop stop-color="#FD5C5C"/>
<stop offset="0.15" stop-color="#FF8800"/>
<stop offset="0.35" stop-color="#FFDA0A"/>
<stop offset="0.55" stop-color="#00FF73"/>
<stop offset="0.75" stop-color="#55BEFF"/>
<stop offset="0.95" stop-color="#F984FF"/>
</linearGradient>
<linearGradient id="paint2_linear_400_1773" x1="446.5" y1="193" x2="446.5" y2="318" gradientUnits="userSpaceOnUse">
<stop stop-color="#8E74FF"/>
<stop offset="1" stop-color="#FF00EE"/>
</linearGradient>
<linearGradient id="paint3_linear_400_1773" x1="65.5" y1="193" x2="65.5" y2="318" gradientUnits="userSpaceOnUse">
<stop stop-color="#8E74FF"/>
<stop offset="1" stop-color="#FF00EE"/>
</linearGradient>
<linearGradient id="paint4_linear_400_1773" x1="256.5" y1="159" x2="256.5" y2="354" gradientUnits="userSpaceOnUse">
<stop stop-color="#FD5C5C"/>
<stop offset="0.15" stop-color="#FF8800"/>
<stop offset="0.35" stop-color="#FFDA0A"/>
<stop offset="0.55" stop-color="#00FF73"/>
<stop offset="0.75" stop-color="#55BEFF"/>
<stop offset="0.95" stop-color="#F984FF"/>
</linearGradient>
</defs>
</svg>
